# xmcd
# Track frame offsets:
# 150
# 11928
# 27551
# 41503
# 53419
# 70413
# 87017
# 105772
# 118037
# 136244
# 149705
# 171981
# 183193
# 198075
# 215217
# 226098
# 242121
# 257806
#
# Disc length: 3578 seconds
# Revision: 0
# Processed by: cddbd v1.4PL0 Copyright (c) Steve Scherf et al.
# Submitted via: VisiTrax 2.9.5.180 - For more info visit www.synapsa.com
#
DISCID=fd0df812
DTITLE=Bob Boatright - Take the A-train (instrumental)
DYEAR=1999
DGENRE=
TTITLE0=Maggie
TTITLE1=Wednesday night waltz
TTITLE2=Old watermill by the waterfall
TTITLE3=Lone star rag
TTITLE4=Silver lake blues
TTITLE5=Take the A-train
TTITLE6=Lady be good
TTITLE7=Rubber dolly
TTITLE8=Medley: Born to lose-Blue moon turns to gold-Have I told you lately
TTITLE9=Red skin gal
TTITLE10=Eyes of Texas
TTITLE11=I don't love nobody
TTITLE12=Farewell blues
TTITLE13=Darling Nellie Gray/Goldmine in the sky
TTITLE14=Twinkle star
TTITLE15=Nobody's darling but mine
TTITLE16=Maiden's prayer
TTITLE17=Seven come eleven
EXTD=
EXTT0=
EXTT1=
EXTT2=
EXTT3=
EXTT4=
EXTT5=
EXTT6=
EXTT7=
EXTT8=
EXTT9=
EXTT10=
EXTT11=
EXTT12=
EXTT13=
EXTT14=
EXTT15=
EXTT16=
EXTT17=
PLAYORDER=
